<?xml version="1.0" encoding="UTF-8"?>
<!-- Generated by Pixelmator Pro 3.7 -->
<svg width="366" height="379" viewBox="0 0 366 379" xmlns="http://www.w3.org/2000/svg">
    <g id="Group-copy">
        <path id="DOCKFORM-copy" fill="#ffffff" fill-rule="evenodd" stroke="none" d="M 306.077698 376.683502 L 306.077698 338.054871 L 322.508514 338.054871 L 335.457275 364.877319 L 335.511658 364.877319 L 348.460388 338.054871 L 365 338.054871 L 365 376.683502 L 354.118652 376.683502 L 354.118652 348.065613 L 354.06427 348.065613 L 340.1362 376.683502 L 330.17981 376.683502 L 316.25174 348.065613 L 316.197327 348.065613 L 316.197327 376.683502 Z M 264.565521 376.683502 L 264.565521 338.054871 L 288.395599 338.054871 C 293.546082 338.054871 297.41803 339.152039 300.011383 341.346436 C 302.604767 343.540894 303.901398 346.723602 303.901398 350.894867 C 303.901398 353.905334 303.185089 356.40802 301.752411 358.402924 C 300.319672 360.397827 298.243134 361.884949 295.522858 362.864288 L 304.282318 376.683502 L 291.877625 376.683502 L 284.369507 364.278809 L 275.446869 364.278809 L 275.446869 376.683502 Z M 287.41629 346.107086 L 275.446869 346.107086 L 275.446869 356.498657 L 287.41629 356.498657 C 291.152252 356.498657 293.020172 354.848328 293.020172 351.547638 L 293.020172 351.003601 C 293.020172 347.739166 291.152252 346.107086 287.41629 346.107086 Z M 239.320908 377.336395 C 234.424271 377.336395 230.262238 376.474915 226.834595 374.752075 C 223.406998 373.029144 220.786453 370.662537 218.9729 367.652069 C 217.159332 364.641479 216.252563 361.232056 216.252563 357.423615 C 216.252563 353.578888 217.150269 350.151245 218.945709 347.140778 C 220.741089 344.13031 223.361633 341.754578 226.807404 340.013519 C 230.253174 338.272461 234.424271 337.401978 239.320908 337.401978 C 244.253799 337.401978 248.43396 338.263458 251.861603 339.986267 C 255.289246 341.709229 257.900726 344.075806 259.696106 347.086395 C 261.491547 350.096893 262.389252 353.542542 262.389252 357.423615 C 262.389252 361.232056 261.491547 364.641479 259.696106 367.652069 C 257.900726 370.662537 255.289246 373.029144 251.861603 374.752075 C 248.43396 376.474915 244.253799 377.336395 239.320908 377.336395 Z M 239.320908 369.066589 C 243.020569 369.066589 245.958511 368.096375 248.13475 366.155853 C 250.31105 364.215302 251.399185 361.522278 251.399185 358.076508 L 251.399185 356.661865 C 251.399185 353.216095 250.31105 350.523071 248.13475 348.58252 C 245.958511 346.641998 243.020569 345.671783 239.320908 345.671783 C 235.621246 345.671783 232.683319 346.641998 230.507065 348.58252 C 228.330765 350.523071 227.242645 353.216095 227.242645 356.661865 L 227.242645 358.076508 C 227.242645 361.522278 228.330765 364.215302 230.507065 366.155853 C 232.683319 368.096375 235.621246 369.066589 239.320908 369.066589 Z M 116.362213 377.390747 C 111.719467 377.390747 107.593681 376.565643 103.984688 374.915314 C 100.375694 373.264984 97.546623 370.943634 95.497292 367.951263 C 93.447968 364.958923 92.423325 361.431549 92.423325 357.369232 C 92.423325 353.306824 93.447968 349.788574 95.497292 346.814331 C 97.546623 343.840088 100.375694 341.536865 103.984688 339.904663 C 107.593681 338.272461 111.719467 337.45636 116.362213 337.45636 C 120.424568 337.45636 123.997208 338.036743 127.080284 339.197418 C 130.163315 340.358093 132.702255 341.944946 134.697159 343.957947 C 136.692108 345.970978 138.034134 348.228851 138.723267 350.731659 L 128.984512 353.071106 C 128.222778 351.184937 127.207207 349.70694 125.937737 348.636902 C 124.668266 347.566956 123.226517 346.814331 121.612427 346.379028 C 119.998337 345.943848 118.302689 345.726166 116.525436 345.726166 C 114.131485 345.726166 111.937119 346.134216 109.942215 346.950317 C 107.947311 347.766418 106.360458 348.99057 105.181664 350.622803 C 104.002815 352.255005 103.413414 354.322388 103.413414 356.825104 L 103.413414 357.913269 C 103.413414 360.37973 104.002815 362.43811 105.181664 364.08844 C 106.360458 365.73877 107.947311 366.971954 109.942215 367.788055 C 111.937119 368.604156 114.131485 369.012207 116.525436 369.012207 C 118.302689 369.012207 119.998337 368.794495 121.612427 368.359314 C 123.226517 367.924042 124.668266 367.171417 125.937737 366.101471 C 127.207207 365.031403 128.222778 363.553406 128.984512 361.667236 L 138.723267 364.006836 C 138.034134 366.509521 136.692108 368.767395 134.697159 370.780396 C 132.702255 372.793427 130.163315 374.398407 127.080284 375.595337 C 123.997208 376.792358 120.424568 377.390747 116.362213 377.390747 Z M 68.647659 377.336395 C 63.75108 377.336395 59.588989 376.474915 56.161396 374.752075 C 52.733749 373.029144 50.113201 370.662537 48.299644 367.652069 C 46.486088 364.641479 45.579308 361.232056 45.579308 357.423615 C 45.579308 353.578888 46.477024 350.151245 48.272461 347.140778 C 50.067837 344.13031 52.688385 341.754578 56.134155 340.013519 C 59.579929 338.272461 63.75108 337.401978 68.647659 337.401978 C 73.580551 337.401978 77.760757 338.263458 81.188354 339.986267 C 84.615997 341.709229 87.227486 344.075806 89.022919 347.086395 C 90.818359 350.096893 91.716019 353.542542 91.716019 357.423615 C 91.716019 361.232056 90.818359 364.641479 89.022919 367.652069 C 87.227486 370.662537 84.615997 373.029144 81.188354 374.752075 C 77.760757 376.474915 73.580551 377.336395 68.647659 377.336395 Z M 68.647659 369.066589 C 72.347328 369.066589 75.285255 368.096375 77.461502 366.155853 C 79.637802 364.215302 80.725929 361.522278 80.725929 358.076508 L 80.725929 356.661865 C 80.725929 353.216095 79.637802 350.523071 77.461502 348.58252 C 75.285255 346.641998 72.347328 345.671783 68.647659 345.671783 C 64.947998 345.671783 62.010067 346.641998 59.83382 348.58252 C 57.657574 350.523071 56.569393 353.216095 56.569393 356.661865 L 56.569393 358.076508 C 56.569393 361.522278 57.657574 364.215302 59.83382 366.155853 C 62.010067 368.096375 64.947998 369.066589 68.647659 369.066589 Z M 1.237976 376.683502 L 1.237976 338.054871 L 22.075714 338.054871 C 27.189945 338.054871 31.424526 338.889099 34.779625 340.557556 C 38.134724 342.226013 40.64642 344.520111 42.314938 347.439972 C 43.983395 350.359833 44.817627 353.687653 44.817627 357.423615 C 44.817627 361.12323 43.983395 364.423889 42.314938 367.325623 C 40.64642 370.227264 38.134724 372.51236 34.779625 374.180817 C 31.424526 375.849274 27.189945 376.683502 22.075714 376.683502 Z M 12.119325 368.631287 L 21.313976 368.631287 C 25.557732 368.631287 28.704189 367.688324 30.753517 365.802155 C 32.802845 363.916107 33.827484 361.340912 33.827484 358.076508 L 33.827484 356.661865 C 33.827484 353.324951 32.802845 350.731659 30.753517 348.881714 C 28.704189 347.031921 25.557732 346.107086 21.313976 346.107086 L 12.119325 346.107086 Z M 140.246674 338.054871 L 140.246674 376.683502 L 151.127975 376.683502 L 151.127975 366.727112 L 157.602341 360.579193 L 169.13652 376.683502 L 192.803329 376.683502 L 192.803329 362.211395 L 215.001205 362.211395 L 215.001205 354.485626 L 192.803329 354.485626 L 192.803329 346.107086 L 216.198135 346.107086 L 216.198135 338.054871 L 168.755646 338.054871 L 151.127975 354.975281 L 151.127975 338.054871 L 140.246674 338.054871 Z M 181.922043 338.159027 L 181.922043 376.314331 L 165.436859 353.941589 L 181.922043 338.159027 Z"/>
        <path id="F1-copy-4" fill="#ffffff" fill-rule="evenodd" stroke="none" d="M 328.600006 1.799988 C 268.290497 1.799988 219.399994 50.690491 219.399994 111 L 219.399994 147.399994 L 292.200012 147.399994 L 292.200012 111 C 292.200012 90.896851 308.496826 74.600006 328.600006 74.600006 L 365 74.600006 L 365 1.799988 L 328.600006 1.799988 Z M 328.600006 147.399994 C 268.290497 147.399994 219.399994 196.290512 219.399994 256.600006 L 219.399994 293 L 292.200012 293 L 292.200012 256.600006 C 292.200012 236.496841 308.496826 220.199997 328.600006 220.199997 L 365 220.199997 L 365 147.399994 L 328.600006 147.399994 Z M 110.199997 74.600006 C 49.890507 74.600006 1 123.490509 1 183.800003 C 1 244.109497 49.890507 293 110.199997 293 C 170.509491 293 219.399994 244.109497 219.399994 183.800003 L 219.399994 147.399994 L 146.600006 147.399994 L 146.600006 183.800003 C 146.600006 203.903168 130.303162 220.199997 110.199997 220.199997 C 90.09684 220.199997 73.800003 203.903168 73.800003 183.800003 C 73.800003 163.696838 90.09684 147.399994 110.199997 147.399994 C 170.509491 147.399994 219.399994 98.509491 219.399994 38.200012 L 219.399994 1.799988 L 146.600006 1.799988 L 146.600006 38.200012 C 146.600006 58.303162 130.303162 74.600006 110.199997 74.600006 Z"/>
    </g>
</svg>
